# xmcd
#
# Track frame offsets: 
#        150
#        16193
#        33503
#        56065
#        73472
#        91571
#        108186
#        121144
#        143997
#        162582
#        179522
#        193684
#
# Disc length: 2822 seconds
#
# Revision: 1
# Processed by: cddbd v1.5.2PL0 Copyright (c) Steve Scherf et al.
# Submitted via: ExactAudioCopy v1.0b1
#
DISCID=a60b040c
DTITLE=Peter Cooper - The Lloyd Green Album
DYEAR=2010
DGENRE=Country
TTITLE0=Dumb Luck
TTITLE1=The Last Laugh
TTITLE2=Elmer the Dancer
TTITLE3=Gospel Song
TTITLE4=Bells of Odilla
TTITLE5=Mama, Bake a Pie
TTITLE6=Champion of the World
TTITLE7=Tulsa Queen
TTITLE8=That Poor Guy
TTITLE9=What Dub Does
TTITLE10=Here Comes That Rainbow Again
TTITLE11=Train to Birmingham
EXTD=
EXTT0=
EXTT1=
EXTT2=
EXTT3=
EXTT4=
EXTT5=
EXTT6=
EXTT7=
EXTT8=
EXTT9=
EXTT10=
EXTT11=
PLAYORDER=
